<svg width="79" height="24" viewBox="0 0 79 24" fill="none" xmlns="http://www.w3.org/2000/svg">
<path d="M14.3672 3.78516H9.14062V18H5.625V3.78516H0.46875V0.9375H14.3672V3.78516ZM22.5117 8.49609C22.0508 8.43359 21.6445 8.40234 21.293 8.40234C20.0117 8.40234 19.1719 8.83594 18.7734 9.70312V18H15.3867V5.32031H18.5859L18.6797 6.83203C19.3594 5.66797 20.3008 5.08594 21.5039 5.08594C21.8789 5.08594 22.2305 5.13672 22.5586 5.23828L22.5117 8.49609ZM31.1484 18C30.9922 17.6953 30.8789 17.3164 30.8086 16.8633C29.9883 17.7773 28.9219 18.2344 27.6094 18.2344C26.3672 18.2344 25.3359 17.875 24.5156 17.1562C23.7031 16.4375 23.2969 15.5312 23.2969 14.4375C23.2969 13.0938 23.793 12.0625 24.7852 11.3438C25.7852 10.625 27.2266 10.2617 29.1094 10.2539H30.668V9.52734C30.668 8.94141 30.5156 8.47266 30.2109 8.12109C29.9141 7.76953 29.4414 7.59375 28.793 7.59375C28.2227 7.59375 27.7734 7.73047 27.4453 8.00391C27.125 8.27734 26.9648 8.65234 26.9648 9.12891H23.5781C23.5781 8.39453 23.8047 7.71484 24.2578 7.08984C24.7109 6.46484 25.3516 5.97656 26.1797 5.625C27.0078 5.26562 27.9375 5.08594 28.9688 5.08594C30.5312 5.08594 31.7695 5.48047 32.6836 6.26953C33.6055 7.05078 34.0664 8.15234 34.0664 9.57422V15.0703C34.0742 16.2734 34.2422 17.1836 34.5703 17.8008V18H31.1484ZM28.3477 15.6445C28.8477 15.6445 29.3086 15.5352 29.7305 15.3164C30.1523 15.0898 30.4648 14.7891 30.668 14.4141V12.2344H29.4023C27.707 12.2344 26.8047 12.8203 26.6953 13.9922L26.6836 14.1914C26.6836 14.6133 26.832 14.9609 27.1289 15.2344C27.4258 15.5078 27.832 15.6445 28.3477 15.6445ZM41.2266 13.8633L43.582 5.32031H47.1211L42.8438 18H39.6094L35.332 5.32031H38.8711L41.2266 13.8633ZM54.293 18.2344C52.4336 18.2344 50.918 17.6641 49.7461 16.5234C48.582 15.3828 48 13.8633 48 11.9648V11.6367C48 10.3633 48.2461 9.22656 48.7383 8.22656C49.2305 7.21875 49.9258 6.44531 50.8242 5.90625C51.7305 5.35938 52.7617 5.08594 53.918 5.08594C55.6523 5.08594 57.0156 5.63281 58.0078 6.72656C59.0078 7.82031 59.5078 9.37109 59.5078 11.3789V12.7617H51.4336C51.543 13.5898 51.8711 14.2539 52.418 14.7539C52.9727 15.2539 53.6719 15.5039 54.5156 15.5039C55.8203 15.5039 56.8398 15.0312 57.5742 14.0859L59.2383 15.9492C58.7305 16.668 58.043 17.2305 57.1758 17.6367C56.3086 18.0352 55.3477 18.2344 54.293 18.2344ZM53.9062 7.82812C53.2344 7.82812 52.6875 8.05469 52.2656 8.50781C51.8516 8.96094 51.5859 9.60938 51.4688 10.4531H56.1797V10.1836C56.1641 9.43359 55.9609 8.85547 55.5703 8.44922C55.1797 8.03516 54.625 7.82812 53.9062 7.82812ZM65.0156 18H61.6172V0H65.0156V18ZM72.5508 13.207L74.8945 5.32031H78.5273L73.4297 19.9688L73.1484 20.6367C72.3906 22.293 71.1406 23.1211 69.3984 23.1211C68.9062 23.1211 68.4062 23.0469 67.8984 22.8984V20.332L68.4141 20.3438C69.0547 20.3438 69.5312 20.2461 69.8438 20.0508C70.1641 19.8555 70.4141 19.5312 70.5938 19.0781L70.9922 18.0352L66.5508 5.32031H70.1953L72.5508 13.207Z" fill="white"/>
</svg>
